<svg version="1.1" viewBox="0.0 0.0 630.7322834645669 198.33858267716536" fill="none" stroke="none" stroke-linecap="square" stroke-miterlimit="10" xmlns:xlink="http://www.w3.org/1999/xlink" xmlns="http://www.w3.org/2000/svg"><clipPath id="p.0"><path d="m0 0l630.7323 0l0 198.33858l-630.7323 0l0 -198.33858z" clip-rule="nonzero"/></clipPath><g clip-path="url(#p.0)"><path fill="#000000" fill-opacity="0.0" d="m0 0l630.7323 0l0 198.33858l-630.7323 0z" fill-rule="evenodd"/><path fill="#ffffff" d="m458.3189 193.70767l-85.78674 -189.02658l-31.20874 0l-85.78676 189.02658l36.211136 0l65.17999 -150.50458l64.65738 150.50458l36.733734 0z" fill-rule="evenodd"/><path stroke="#ffffff" stroke-width="4.0" stroke-linejoin="round" stroke-linecap="butt" d="m458.3189 193.70767l-85.78674 -189.02658l-31.20874 0l-85.78676 189.02658l36.211136 0l65.17999 -150.50458l64.65738 150.50458l36.733734 0z" fill-rule="evenodd"/><path fill="#000000" fill-opacity="0.0" d="m130.83856 4.6309175l85.78674 189.02657l31.208755 0l85.78676 -189.02657l-36.21112 0l-65.18001 150.50456l-64.65738 -150.50456l-36.73375 0z" fill-rule="evenodd"/><path stroke="#ffffff" stroke-width="4.0" stroke-linejoin="round" stroke-linecap="butt" d="m130.83856 4.6309175l85.78674 189.02657l31.208755 0l85.78676 -189.02657l-36.21112 0l-65.18001 150.50456l-64.65738 -150.50456l-36.73375 0z" fill-rule="evenodd"/><path fill="#000000" fill-opacity="0.0" d="m208.8701 193.70767l-85.78675 -189.02658l-31.208755 0l-85.78674 189.02658l36.211117 0l65.18001 -150.50458l64.65738 150.50458l36.73375 0z" fill-rule="evenodd"/><path stroke="#ffffff" stroke-width="4.0" stroke-linejoin="round" stroke-linecap="butt" d="m208.8701 193.70767l-85.78675 -189.02658l-31.208755 0l-85.78674 189.02658l36.211117 0l65.18001 -150.50458l64.65738 150.50458l36.73375 0z" fill-rule="evenodd"/><path fill="#ffffff" d="m624.6181 193.70767l-85.78674 -189.02658l-31.20874 0l-85.78674 189.02658l36.21112 0l65.17999 -150.50458l64.65741 150.50458l36.733704 0z" fill-rule="evenodd"/><path stroke="#ffffff" stroke-width="4.0" stroke-linejoin="round" stroke-linecap="butt" d="m624.6181 193.70767l-85.78674 -189.02658l-31.20874 0l-85.78674 189.02658l36.21112 0l65.17999 -150.50458l64.65741 150.50458l36.733704 0z" fill-rule="evenodd"/></g></svg>